<?xml version="1.0" encoding="UTF-8" standalone="no"?>
<svg
   xmlns:dc="http://purl.org/dc/elements/1.1/"
   xmlns:cc="http://creativecommons.org/ns#"
   xmlns:rdf="http://www.w3.org/1999/02/22-rdf-syntax-ns#"
   xmlns:svg="http://www.w3.org/2000/svg"
   xmlns="http://www.w3.org/2000/svg"
   xmlns:sodipodi="http://sodipodi.sourceforge.net/DTD/sodipodi-0.dtd"
   xmlns:inkscape="http://www.inkscape.org/namespaces/inkscape"
   version="1.1"
   id="Layer_1"
   x="0px"
   y="0px"
   viewBox="0 0 699.1504 85"
   xml:space="preserve"
   sodipodi:docname="newlogo.svg"
   inkscape:version="0.92.2 (5c3e80d, 2017-08-06)"
   width="699.15039"
   height="85"><metadata
     id="metadata33"><rdf:RDF><cc:Work
         rdf:about=""><dc:format>image/svg+xml</dc:format><dc:type
           rdf:resource="http://purl.org/dc/dcmitype/StillImage" /></cc:Work></rdf:RDF></metadata><defs
     id="defs31" /><sodipodi:namedview
     pagecolor="#ffffff"
     bordercolor="#666666"
     borderopacity="1"
     objecttolerance="10"
     gridtolerance="10"
     guidetolerance="10"
     inkscape:pageopacity="0"
     inkscape:pageshadow="2"
     inkscape:window-width="1920"
     inkscape:window-height="1017"
     id="namedview29"
     showgrid="false"
     inkscape:snap-text-baseline="true"
     inkscape:zoom="2.1088824"
     inkscape:cx="519.08596"
     inkscape:cy="75.618733"
     inkscape:window-x="-8"
     inkscape:window-y="-8"
     inkscape:window-maximized="1"
     inkscape:current-layer="g26" /><style
     type="text/css"
     id="style2">
	.st0{fill:#FF0000;}
	.st1{fill:#FFFFFF;}
	.st2{fill:#282828;}
</style><g
     id="g8"><path
       class="st0"
       d="M 118.9,13.3 C 117.5,8.1 113.4,4 108.2,2.6 98.7,0 60.7,0 60.7,0 60.7,0 22.7,0 13.2,2.5 8.1,3.9 3.9,8.1 2.5,13.3 0,22.8 0,42.5 0,42.5 0,42.5 0,62.3 2.5,71.7 3.9,76.9 8,81 13.2,82.4 22.8,85 60.7,85 60.7,85 c 0,0 38,0 47.5,-2.5 5.2,-1.4 9.3,-5.5 10.7,-10.7 2.5,-9.5 2.5,-29.2 2.5,-29.2 0,0 0.1,-19.8 -2.5,-29.3 z"
       id="path4"
       inkscape:connector-curvature="0"
       style="fill:#ff0000" /><polygon
       class="st1"
       points="80.2,42.5 48.6,24.3 48.6,60.7 "
       id="polygon6"
       style="fill:#ffffff" /></g><g
     id="g26"><path
       style="fill:#282828;fill-opacity:1;stroke-width:0.47418481"
       d="M 141.63486,63.332568 V 50.613486 l -9.4837,-20.937617 c -5.21603,-11.515689 -9.4837,-21.0567257 -9.4837,-21.2023027 0,-0.145577 2.04928,-0.2036127 4.55396,-0.1289682 l 4.55395,0.1357174 6.91846,16.9521065 c 3.80515,9.323659 7.05381,16.952107 7.21924,16.952107 0.16544,0 3.40758,-7.628448 7.20477,-16.952107 l 6.90397,-16.9521065 4.55788,-0.1357174 c 2.50684,-0.074645 4.55789,-0.039305 4.55789,0.078533 0,0.1178376 -4.26767,9.6391209 -9.4837,21.1584089 l -9.4837,20.944158 v 12.762975 12.762978 h -4.26766 -4.26766 z"
       id="path13"
       inkscape:connector-curvature="0" /><path
       style="fill:#282828;fill-opacity:1;stroke-width:0.47418481"
       d="M 188.10497,45.703823 V 15.355995 h -9.00951 -9.00951 V 11.799609 8.2432231 h 22.04959 22.04959 v 3.5563859 3.556386 h -9.00951 -9.00951 v 30.347828 30.347828 h -4.03057 -4.03057 z"
       id="path15"
       inkscape:connector-curvature="0" /><path
       style="fill:#282828;fill-opacity:1;stroke-width:0.47418481"
       d="M 229.83323,42.147437 V 8.2432231 h 17.54484 17.54484 v 3.5563859 3.556386 h -13.51427 -13.51427 v 11.85462 11.854621 h 11.61753 11.61753 v 3.556386 3.556386 H 249.5119 237.89437 v 14.936821 14.936822 h -4.03057 -4.03057 z"
       id="path17"
       inkscape:connector-curvature="0" /><path
       style="fill:#282828;fill-opacity:1;stroke-width:0.47418481"
       d="m 212.66106,76.649756 c -0.70783,-0.100995 -1.85094,-0.853864 -2.54023,-1.673044 -1.06637,-1.267309 -1.21729,-1.808545 -1.01205,-3.629433 0.33025,-2.929979 1.93808,-4.30514 5.03355,-4.30514 2.75366,0 4.56111,1.408395 5.03256,3.921456 0.68639,3.658773 -2.32135,6.284344 -6.51383,5.686161 z"
       id="path19"
       inkscape:connector-curvature="0" /><path
       style="fill:#282828;fill-opacity:1;stroke-width:0.47418481"
       d="M 290.0547,42.147437 V 8.2432231 h 4.26767 4.26766 v 30.5849199 30.58492 h 13.27717 13.27718 v 3.319294 3.319294 H 307.59954 290.0547 Z"
       id="path21"
       inkscape:connector-curvature="0" /><path
       style="fill:#282828;fill-opacity:1;stroke-width:0.47418481"
       d="M 331.30878,42.147437 V 8.2432231 h 4.03057 4.03057 V 42.147437 76.051651 h -4.03057 -4.03057 z"
       id="path23"
       inkscape:connector-curvature="0" /><path
       style="fill:#282828;fill-opacity:1;stroke-width:0.47418481"
       d="M 349.80199,42.089049 V 8.1264464 l 12.92153,0.2217075 c 11.83348,0.2030386 13.18072,0.3114454 15.99956,1.2874162 7.69264,2.6634369 12.00206,8.7332189 12.64625,17.8121379 0.69432,9.785393 -3.55616,17.705874 -11.10255,20.688863 -2.4541,0.970071 -3.70309,1.095362 -12.56432,1.260377 l -9.83933,0.183228 v 13.235739 13.235736 h -4.03057 -4.03057 z m 23.68655,0.308412 c 4.005,-0.578833 6.48102,-2.278496 8.17093,-5.608939 3.02563,-5.962856 1.96212,-14.194327 -2.37859,-18.409968 -2.51729,-2.444767 -5.17764,-3.022559 -13.91686,-3.022559 h -7.50089 v 13.435236 c 0,7.389381 0.14226,13.577492 0.31612,13.75136 0.47105,0.471051 11.78819,0.363766 15.30929,-0.14513 z"
       id="path25"
       inkscape:connector-curvature="0" /><path
       style="fill:#282828;fill-opacity:1;stroke-width:0.47418481"
       d="M 398.16884,42.147437 V 8.2432231 h 4.0245 4.02451 l 0.12461,16.6868609 0.12461,16.686861 4.26767,-5.70993 c 2.34721,-3.140461 7.78848,-10.638029 12.09171,-16.661262 l 7.82405,-10.9513321 4.91845,-0.025599 c 3.86281,-0.020105 4.82139,0.1016189 4.46618,0.5671321 -3.57274,4.682191 -21.47634,29.239246 -21.47634,29.45752 0,0.163265 5.23464,8.672299 11.63254,18.908965 l 11.63255,18.612119 -4.60321,0.136722 c -3.29801,0.09796 -4.76182,-0.03651 -5.16259,-0.474185 -0.30766,-0.335998 -4.66209,-7.385822 -9.67651,-15.666274 -5.01442,-8.280452 -9.16409,-15.055368 -9.2215,-15.055368 -0.0574,0 -1.64016,1.897343 -3.51723,4.216317 l -3.41286,4.216317 v 11.431784 11.43178 h -4.03057 -4.03057 z"
       id="path27"
       inkscape:connector-curvature="0" /><path
       style="fill:#282828;fill-opacity:1;stroke-width:0.47418481"
       d="M 446.0615,42.147437 V 8.2432231 h 4.03058 4.03057 V 42.147437 76.051651 h -4.03057 -4.03058 z"
       id="path29"
       inkscape:connector-curvature="0" /><path
       style="fill:#282828;fill-opacity:1;stroke-width:0.47418481"
       d="M 464.55471,42.128975 V 8.2063004 l 4.13313,0.1370075 4.13312,0.1370076 13.76735,26.5452645 13.76735,26.545263 0.1225,-26.663809 0.12249,-26.6638109 h 4.02663 4.02662 V 42.147437 76.051651 h -4.17968 -4.17968 L 486.87873,50.205255 c -7.3787,-14.215518 -13.60641,-25.964184 -13.83935,-26.108149 -0.24662,-0.15242 -0.42353,10.643577 -0.42353,25.846395 v 26.10815 h -4.03057 -4.03057 z"
       id="path31"
       inkscape:connector-curvature="0" /><path
       style="fill:#282828;fill-opacity:1;stroke-width:0.47418481"
       d="M 553.93855,76.335142 C 546.91361,74.107616 542.33212,69.258048 539.59471,61.15201 l -1.29362,-3.830659 -0.005,-14.699729 c -0.006,-15.904457 0.12872,-16.965635 2.89203,-22.821691 2.55377,-5.411989 7.16014,-9.488981 12.58164,-11.1357097 2.71024,-0.8232107 4.1814,-0.9654409 8.36735,-0.8089475 4.3203,0.1615162 5.51965,0.3905367 8.02949,1.5332531 3.58074,1.6302961 7.2683,5.3434711 8.94608,9.0082091 1.20878,2.640324 2.54317,8.042516 2.55777,10.35498 l 0.008,1.304008 h -4.00908 -4.00909 l -0.29264,-1.778193 c -1.25593,-7.631464 -2.80163,-10.53516 -6.62601,-12.447351 -2.9823,-1.491148 -7.8563,-1.630439 -11.24867,-0.321469 -4.42278,1.70656 -7.78135,6.883717 -8.88745,13.699829 -0.71562,4.409798 -0.58881,23.110885 0.18617,27.455557 1.11575,6.255119 3.56876,10.276837 7.57625,12.421262 2.74505,1.468897 9.59162,1.468427 12.3737,-9.48e-4 3.46705,-1.831027 5.5349,-5.140349 6.16507,-9.866421 0.56674,-4.250327 0.3065,-4.03057 4.77313,-4.03057 4.62747,0 4.48371,-0.233143 3.30022,5.352057 -1.79698,8.480402 -7.04602,14.231296 -14.57443,15.967865 -2.82991,0.652777 -10.18555,0.551117 -12.46698,-0.172299 z"
       id="path33"
       inkscape:connector-curvature="0" /><path
       style="fill:#282828;fill-opacity:1;stroke-width:0.47418481"
       d="m 602.48481,75.933778 c -7.87452,-2.755763 -12.68584,-9.215934 -14.44194,-19.391224 -1.04637,-6.062934 -0.74822,-26.673482 0.44833,-30.991585 2.12507,-7.668998 6.27999,-13.179655 12.03286,-15.9591483 2.87316,-1.388159 3.72819,-1.567489 8.28283,-1.7371895 4.18481,-0.1559212 5.65784,-0.013396 8.36735,0.8095901 7.47607,2.2707867 12.55469,8.4592137 14.63663,17.8351167 1.2036,5.420304 1.20643,26.756637 0.004,31.990793 -1.87639,8.169607 -6.05603,13.949626 -12.09653,16.728287 -2.85802,1.314706 -3.75153,1.484317 -8.64077,1.640262 -4.76134,0.151867 -5.85145,0.03452 -8.59301,-0.924902 z m 12.29308,-6.606362 c 1.63142,-0.410796 2.86485,-1.20139 4.63323,-2.969777 3.09339,-3.093382 4.29359,-6.504672 5.01231,-14.246261 0.64953,-6.996395 0.21717,-21.125351 -0.77315,-25.265485 -2.04532,-8.550718 -6.76888,-12.375108 -14.64894,-11.860384 -7.23584,0.472644 -11.17291,4.614298 -12.90047,13.570828 -0.96222,4.988575 -0.92226,23.084538 0.0615,27.847144 1.55478,7.527167 4.47294,11.451824 9.69636,13.040717 1.84737,0.561943 6.46377,0.501498 8.91918,-0.116782 z"
       id="path35"
       inkscape:connector-curvature="0" /><path
       style="fill:#282828;fill-opacity:1;stroke-width:0.47418481"
       d="M 641.42565,42.147437 V 8.2432231 h 5.42566 5.42566 l 1.60157,5.0974869 c 7.42555,23.634035 16.2559,50.757671 16.45972,50.558276 0.13736,-0.134379 4.22379,-12.658555 9.08096,-27.831499 l 8.8312,-27.5871715 5.2758,-0.1340763 5.27579,-0.1340763 V 42.131907 76.051651 h -4.10752 -4.10751 l 0.3224,-23.353602 c 0.17732,-12.844481 0.45794,-24.719992 0.62359,-26.390023 0.17544,-1.76874 0.12245,-2.924973 -0.12692,-2.769475 -0.23545,0.14682 -4.37568,12.027192 -9.20051,26.400827 l -8.77242,26.133881 -3.28136,-0.129348 -3.28137,-0.129353 -8.74119,-26.228347 c -4.80766,-14.425591 -8.84588,-26.123674 -8.97381,-25.995739 -0.12793,0.127934 9.9e-4,7.176034 0.28649,15.662444 0.2855,8.486409 0.51909,20.23784 0.51909,26.114284 v 10.684451 h -4.26766 -4.26766 z"
       id="path37"
       inkscape:connector-curvature="0" /><path
       style="fill:#282828;fill-opacity:1;stroke-width:0.47418481"
       d="m 521.59668,76.474509 c -2.01424,-0.581751 -2.9849,-2.076133 -2.9849,-4.595414 0,-2.980275 1.91118,-4.836956 4.97894,-4.836956 1.80683,0 2.45799,0.251211 3.59286,1.386079 1.90539,1.905384 1.96715,5.016299 0.13596,6.847494 -0.68757,0.687568 -1.63034,1.250124 -2.09505,1.250124 -0.46471,0 -1.12911,0.08722 -1.47644,0.193817 -0.34733,0.1066 -1.31545,-0.0037 -2.15137,-0.245144 z"
       id="path39"
       inkscape:connector-curvature="0" /><path
       style="fill:#282828;fill-opacity:1;stroke-width:0.47418481"
       d="M 271.56149,42.147437 V 8.2432231 h 4.03058 4.03057 V 42.147437 76.051651 h -4.03057 -4.03058 z"
       id="path41"
       inkscape:connector-curvature="0" /></g></svg>